<?xml version="1.0" encoding="utf-8"?>
<!-- Generator: Adobe Illustrator 16.0.3, SVG Export Plug-In . SVG Version: 6.00 Build 0)  -->
<!DOCTYPE svg PUBLIC "-//W3C//DTD SVG 1.1//EN" "http://www.w3.org/Graphics/SVG/1.1/DTD/svg11.dtd">
<svg version="1.1" id="Layer_1" xmlns="http://www.w3.org/2000/svg" xmlns:xlink="http://www.w3.org/1999/xlink" x="0px" y="0px"
	 width="964.682187893" height="103.661082639" viewBox="0 0 1393.05 130.455" enable-background="new 0 0 1093.05 117.455"
	 xml:space="preserve">
<g>
	<rect id="rect19" y="0.059" fill="#EE282A" width="57.075" height="116.22"/>
	<rect x="57.075" y="0.059" fill="#FFFFFF" width="126.601" height="116.22"/>
	<rect id="rect23" x="183.675" y="0.059" fill="#EE282A" width="57.078" height="116.22"/>
	<path id="path27" fill="#EE282A" d="M112.453,24.215l8.163-16.591l8.09,15.988c1.01,1.686,1.826,1.552,3.438,0.738l6.952-3.433
		l-4.523,22.327c-0.942,4.379,1.558,5.665,4.255,2.69l9.916-10.585l2.629,5.996c0.882,1.819,2.222,1.546,3.981,1.219l10.244-2.157
		l-3.439,12.943l-0.072,0.271c-0.402,1.691-1.212,3.104,0.682,3.913l3.639,1.821l-21.114,17.873c-2.156,2.22-1.413,2.9-0.603,5.399
		l1.952,5.996l-19.689-3.577c-2.429-0.598-4.116-0.598-4.182,1.349l0.81,22.593h-5.936l0.81-22.526c0-2.221-1.686-2.157-5.673-1.34
		l-18.2,3.506l2.356-5.998c0.809-2.295,1.017-3.846-0.809-5.396L74.546,59.629l3.98-2.427c1.143-0.884,1.21-1.822,0.608-3.788
		l-4.047-13.147l10.385,2.222c2.896,0.675,3.705,0,4.45-1.612l2.903-5.937l10.25,11.604c1.82,2.153,4.389,0.746,3.572-2.363
		l-4.917-24.218l7.62,4.381c1.21,0.743,2.493,0.949,3.238-0.469"/>
</g>
<g>
	<path fill="#010101" d="M414.718,0v5.571H398.96v41.194h-6.399V5.571h-15.758V0H414.718z"/>
	<path fill="#010101" d="M417.551,12.67h5.444v5.89c0.445-1.146,1.538-2.542,3.279-4.187c1.74-1.645,3.746-2.467,6.017-2.467
		c0.106,0,0.287,0.011,0.541,0.032c0.255,0.021,0.689,0.063,1.306,0.127v6.049c-0.34-0.064-0.653-0.106-0.939-0.127
		c-0.287-0.021-0.6-0.032-0.939-0.032c-2.887,0-5.104,0.929-6.653,2.786c-1.549,1.857-2.324,3.995-2.324,6.415v19.61h-5.73V12.67z"
		/>
	<path fill="#010101" d="M457.376,26.131c1.315-0.169,2.197-0.72,2.642-1.652c0.254-0.511,0.382-1.246,0.382-2.205
		c0-1.959-0.694-3.382-2.082-4.266c-1.387-0.884-3.373-1.326-5.957-1.326c-2.986,0-5.104,0.811-6.354,2.431
		c-0.699,0.896-1.154,2.229-1.366,4h-5.348c0.106-4.214,1.468-7.146,4.086-8.795c2.618-1.649,5.654-2.474,9.109-2.474
		c4.006,0,7.26,0.764,9.762,2.292c2.48,1.528,3.72,3.905,3.72,7.131v19.643c0,0.594,0.122,1.072,0.366,1.432
		c0.244,0.36,0.758,0.54,1.544,0.54c0.255,0,0.541-0.016,0.859-0.048s0.658-0.079,1.019-0.143v4.233
		c-0.892,0.255-1.571,0.414-2.038,0.478c-0.467,0.063-1.104,0.096-1.91,0.096c-1.974,0-3.406-0.701-4.297-2.101
		c-0.467-0.743-0.796-1.793-0.987-3.151c-1.167,1.528-2.844,2.854-5.03,3.979c-2.186,1.124-4.595,1.687-7.226,1.687
		c-3.163,0-5.746-0.959-7.752-2.877c-2.005-1.918-3.008-4.318-3.008-7.202c0-3.158,0.987-5.606,2.96-7.344
		c1.974-1.738,4.563-2.809,7.768-3.212L457.376,26.131z M445.311,41.611c1.21,0.953,2.643,1.429,4.298,1.429
		c2.016,0,3.968-0.466,5.857-1.398c3.184-1.547,4.775-4.079,4.775-7.596v-4.608c-0.7,0.447-1.599,0.819-2.701,1.118
		c-1.101,0.298-2.182,0.511-3.241,0.638l-3.463,0.445c-2.076,0.276-3.637,0.71-4.683,1.303c-1.772,0.996-2.658,2.583-2.658,4.764
		C443.496,39.355,444.101,40.658,445.311,41.611z"/>
	<path fill="#010101" d="M475.362,12.67h5.444v4.839c1.612-1.995,3.321-3.427,5.125-4.297s3.81-1.306,6.017-1.306
		c4.838,0,8.106,1.688,9.805,5.062c0.934,1.846,1.401,4.488,1.401,7.927v21.87h-5.826V25.276c0-2.08-0.308-3.756-0.923-5.03
		c-1.019-2.122-2.865-3.184-5.539-3.184c-1.358,0-2.473,0.139-3.343,0.414c-1.571,0.467-2.95,1.401-4.138,2.801
		c-0.955,1.125-1.576,2.287-1.862,3.486c-0.287,1.199-0.43,2.913-0.43,5.142v17.859h-5.73V12.67z"/>
	<path fill="#010101" d="M515.028,36.068c0.173,1.91,0.66,3.375,1.462,4.393c1.473,1.846,4.029,2.77,7.668,2.77
		c2.166,0,4.072-0.461,5.718-1.385s2.47-2.35,2.47-4.282c0-1.464-0.658-2.579-1.974-3.343c-0.842-0.466-2.502-1.007-4.982-1.624
		l-4.626-1.146c-2.955-0.721-5.133-1.528-6.535-2.419c-2.502-1.549-3.753-3.692-3.753-6.43c0-3.226,1.177-5.836,3.533-7.832
		c2.354-1.995,5.521-2.992,9.501-2.992c5.205,0,8.958,1.507,11.259,4.521c1.441,1.91,2.141,3.969,2.098,6.176h-5.412
		c-0.109-1.288-0.576-2.459-1.401-3.514c-1.347-1.499-3.683-2.248-7.006-2.248c-2.216,0-3.895,0.413-5.035,1.237
		s-1.71,1.914-1.71,3.267c0,1.48,0.749,2.665,2.248,3.553c0.865,0.529,2.141,0.995,3.827,1.398l3.86,0.923
		c4.195,0.998,7.006,1.963,8.434,2.897c2.228,1.464,3.342,3.768,3.342,6.908c0,3.035-1.166,5.656-3.497,7.863
		c-2.332,2.207-5.882,3.311-10.652,3.311c-5.135,0-8.772-1.151-10.91-3.454c-2.138-2.302-3.282-5.151-3.433-8.547H515.028z"/>
	<path fill="#010101" d="M543.743,12.829h5.603v4.521c1.149-1.549,2.404-2.748,3.766-3.597c1.936-1.273,4.213-1.91,6.83-1.91
		c3.873,0,7.16,1.48,9.863,4.441c2.701,2.96,4.053,7.189,4.053,12.686c0,7.428-1.949,12.734-5.848,15.917
		c-2.473,2.016-5.349,3.024-8.629,3.024c-2.578,0-4.741-0.563-6.488-1.687c-1.022-0.637-2.163-1.729-3.42-3.279v17.414h-5.73V12.829
		z M565.302,39.554c1.777-2.239,2.667-5.587,2.667-10.044c0-2.716-0.395-5.051-1.182-7.003c-1.491-3.756-4.217-5.635-8.178-5.635
		c-3.982,0-6.708,1.985-8.177,5.953c-0.788,2.123-1.182,4.818-1.182,8.086c0,2.632,0.394,4.871,1.182,6.717
		c1.49,3.523,4.216,5.284,8.177,5.284C561.292,42.913,563.523,41.793,565.302,39.554z"/>
	<path fill="#010101" d="M605.184,16.073c3.013,2.926,4.52,7.23,4.52,12.913c0,5.492-1.328,10.03-3.982,13.613
		c-2.656,3.583-6.775,5.375-12.36,5.375c-4.657,0-8.356-1.584-11.096-4.754s-4.108-7.427-4.108-12.771
		c0-5.726,1.443-10.284,4.33-13.677c2.887-3.392,6.765-5.089,11.633-5.089C598.481,11.683,602.169,13.146,605.184,16.073z
		 M601.625,38.732c1.396-2.872,2.094-6.068,2.094-9.586c0-3.18-0.504-5.766-1.512-7.758c-1.594-3.137-4.344-4.706-8.246-4.706
		c-3.463,0-5.981,1.335-7.555,4.007c-1.574,2.671-2.361,5.893-2.361,9.666c0,3.625,0.787,6.646,2.361,9.062
		c1.573,2.417,4.07,3.625,7.491,3.625C597.654,43.04,600.229,41.604,601.625,38.732z"/>
	<path fill="#010101" d="M616.898,12.67h5.443v5.89c0.445-1.146,1.538-2.542,3.278-4.187c1.74-1.645,3.746-2.467,6.018-2.467
		c0.105,0,0.285,0.011,0.541,0.032c0.254,0.021,0.689,0.063,1.305,0.127v6.049c-0.34-0.064-0.652-0.106-0.939-0.127
		c-0.285-0.021-0.6-0.032-0.939-0.032c-2.885,0-5.104,0.929-6.652,2.786c-1.55,1.857-2.324,3.995-2.324,6.415v19.61h-5.729V12.67z"
		/>
	<path fill="#010101" d="M639.597,3.151h5.793v9.519h5.444v4.68h-5.444v22.252c0,1.188,0.403,1.984,1.21,2.387
		c0.446,0.234,1.188,0.351,2.229,0.351c0.275,0,0.573-0.007,0.892-0.021c0.318-0.014,0.689-0.05,1.114-0.106v4.552
		c-0.658,0.191-1.343,0.329-2.054,0.414c-0.711,0.084-1.48,0.127-2.308,0.127c-2.674,0-4.489-0.684-5.444-2.053
		c-0.954-1.369-1.432-3.146-1.432-5.332V17.35h-4.616v-4.68h4.616V3.151z"/>
	<path fill="#010101" d="M413.794,72.855c3.23,3.12,5.024,6.664,5.381,10.633h-6.176c-0.688-3.014-2.058-5.401-4.111-7.163
		c-2.053-1.761-4.935-2.642-8.645-2.642c-4.523,0-8.176,1.62-10.958,4.859c-2.783,3.239-4.173,8.204-4.173,14.896
		c0,5.48,1.256,9.924,3.769,13.334c2.512,3.408,6.259,5.113,11.242,5.113c4.587,0,8.079-1.793,10.477-5.381
		c1.271-1.889,2.22-4.371,2.846-7.449h6.176c-0.545,4.924-2.35,9.053-5.412,12.384c-3.671,4.012-8.623,6.017-14.854,6.017
		c-5.371,0-9.881-1.646-13.531-4.938c-4.804-4.354-7.206-11.074-7.206-20.164c0-6.902,1.804-12.561,5.412-16.979
		c3.901-4.799,9.282-7.199,16.141-7.199C406.022,68.175,410.564,69.735,413.794,72.855z"/>
	<path fill="#010101" d="M445.311,95.58c1.315-0.169,2.197-0.721,2.642-1.652c0.254-0.512,0.382-1.246,0.382-2.205
		c0-1.959-0.694-3.382-2.082-4.266c-1.387-0.884-3.373-1.326-5.957-1.326c-2.986,0-5.104,0.811-6.354,2.431
		c-0.699,0.896-1.154,2.229-1.366,3.999h-5.348c0.106-4.214,1.468-7.146,4.086-8.795c2.618-1.649,5.654-2.474,9.109-2.474
		c4.006,0,7.26,0.764,9.762,2.292c2.48,1.528,3.72,3.905,3.72,7.131v19.643c0,0.595,0.122,1.072,0.366,1.433
		c0.244,0.36,0.758,0.54,1.544,0.54c0.255,0,0.541-0.016,0.859-0.048s0.658-0.079,1.019-0.143v4.233
		c-0.892,0.255-1.571,0.414-2.038,0.478c-0.467,0.063-1.104,0.096-1.91,0.096c-1.974,0-3.406-0.7-4.297-2.101
		c-0.467-0.743-0.796-1.793-0.987-3.151c-1.167,1.528-2.844,2.854-5.03,3.979s-4.595,1.688-7.226,1.688
		c-3.163,0-5.746-0.96-7.752-2.878c-2.005-1.918-3.008-4.318-3.008-7.201c0-3.158,0.987-5.607,2.96-7.345
		c1.974-1.737,4.563-2.81,7.768-3.212L445.311,95.58z M433.245,111.06c1.21,0.953,2.643,1.429,4.298,1.429
		c2.016,0,3.968-0.466,5.857-1.398c3.184-1.547,4.775-4.079,4.775-7.597v-4.607c-0.7,0.446-1.599,0.818-2.701,1.117
		c-1.101,0.299-2.182,0.511-3.241,0.638l-3.463,0.444c-2.076,0.276-3.637,0.711-4.683,1.303c-1.772,0.996-2.658,2.584-2.658,4.765
		C431.431,108.804,432.036,110.107,433.245,111.06z"/>
	<path fill="#010101" d="M463.297,82.119h5.444v4.839c1.612-1.995,3.321-3.427,5.125-4.297s3.81-1.306,6.017-1.306
		c4.838,0,8.106,1.688,9.805,5.062c0.934,1.846,1.401,4.488,1.401,7.927v21.87h-5.826V94.725c0-2.079-0.308-3.757-0.923-5.03
		c-1.019-2.122-2.865-3.183-5.539-3.183c-1.358,0-2.473,0.139-3.343,0.414c-1.571,0.467-2.95,1.401-4.138,2.801
		c-0.955,1.126-1.576,2.287-1.862,3.485c-0.287,1.199-0.43,2.914-0.43,5.143v17.858h-5.73V82.119z"/>
	<path fill="#010101" d="M517.83,95.58c1.315-0.169,2.197-0.721,2.642-1.652c0.254-0.512,0.382-1.246,0.382-2.205
		c0-1.959-0.694-3.382-2.082-4.266c-1.387-0.884-3.373-1.326-5.957-1.326c-2.986,0-5.104,0.811-6.354,2.431
		c-0.699,0.896-1.154,2.229-1.366,3.999h-5.348c0.106-4.214,1.468-7.146,4.086-8.795c2.618-1.649,5.654-2.474,9.109-2.474
		c4.006,0,7.26,0.764,9.762,2.292c2.48,1.528,3.72,3.905,3.72,7.131v19.643c0,0.595,0.122,1.072,0.366,1.433
		c0.244,0.36,0.758,0.54,1.544,0.54c0.255,0,0.541-0.016,0.859-0.048s0.658-0.079,1.019-0.143v4.233
		c-0.892,0.255-1.571,0.414-2.038,0.478c-0.467,0.063-1.104,0.096-1.91,0.096c-1.974,0-3.406-0.7-4.297-2.101
		c-0.467-0.743-0.796-1.793-0.987-3.151c-1.167,1.528-2.844,2.854-5.03,3.979s-4.595,1.688-7.226,1.688
		c-3.163,0-5.746-0.96-7.752-2.878c-2.005-1.918-3.008-4.318-3.008-7.201c0-3.158,0.987-5.607,2.96-7.345
		c1.974-1.737,4.563-2.81,7.768-3.212L517.83,95.58z M505.764,111.06c1.21,0.953,2.643,1.429,4.298,1.429
		c2.016,0,3.968-0.466,5.857-1.398c3.184-1.547,4.775-4.079,4.775-7.597v-4.607c-0.7,0.446-1.599,0.818-2.701,1.117
		c-1.101,0.299-2.182,0.511-3.241,0.638l-3.463,0.444c-2.076,0.276-3.637,0.711-4.683,1.303c-1.772,0.996-2.658,2.584-2.658,4.765
		C503.95,108.804,504.555,110.107,505.764,111.06z"/>
	<path fill="#010101" d="M554.548,83.169c1.015,0.637,2.167,1.75,3.457,3.342V69.29h5.507v46.924h-5.157v-4.743
		c-1.332,2.101-2.907,3.618-4.725,4.552c-1.819,0.934-3.901,1.401-6.248,1.401c-3.784,0-7.062-1.597-9.831-4.791
		s-4.154-7.444-4.154-12.75c0-4.967,1.263-9.269,3.789-12.909c2.526-3.64,6.136-5.46,10.83-5.46
		C550.616,81.514,552.793,82.066,554.548,83.169z M541.757,108.732c1.542,2.463,4.012,3.693,7.412,3.693
		c2.639,0,4.809-1.141,6.509-3.422c1.7-2.281,2.55-5.556,2.55-9.821c0-4.308-0.876-7.497-2.629-9.566
		c-1.753-2.069-3.917-3.104-6.493-3.104c-2.872,0-5.2,1.104-6.984,3.311c-1.784,2.208-2.676,5.454-2.676,9.741
		C539.445,103.214,540.215,106.271,541.757,108.732z"/>
	<path fill="#010101" d="M590.349,95.58c1.315-0.169,2.196-0.721,2.642-1.652c0.255-0.512,0.383-1.246,0.383-2.205
		c0-1.959-0.694-3.382-2.082-4.266c-1.387-0.884-3.373-1.326-5.957-1.326c-2.986,0-5.104,0.811-6.354,2.431
		c-0.699,0.896-1.154,2.229-1.366,3.999h-5.349c0.106-4.214,1.469-7.146,4.086-8.795c2.618-1.649,5.654-2.474,9.109-2.474
		c4.007,0,7.261,0.764,9.762,2.292c2.48,1.528,3.721,3.905,3.721,7.131v19.643c0,0.595,0.122,1.072,0.366,1.433
		c0.243,0.36,0.759,0.54,1.544,0.54c0.255,0,0.541-0.016,0.859-0.048s0.658-0.079,1.02-0.143v4.233
		c-0.893,0.255-1.571,0.414-2.038,0.478c-0.468,0.063-1.104,0.096-1.91,0.096c-1.974,0-3.406-0.7-4.298-2.101
		c-0.467-0.743-0.795-1.793-0.986-3.151c-1.168,1.528-2.844,2.854-5.03,3.979s-4.595,1.688-7.226,1.688
		c-3.163,0-5.746-0.96-7.752-2.878s-3.009-4.318-3.009-7.201c0-3.158,0.987-5.607,2.96-7.345c1.975-1.737,4.563-2.81,7.768-3.212
		L590.349,95.58z M578.283,111.06c1.209,0.953,2.643,1.429,4.297,1.429c2.017,0,3.969-0.466,5.857-1.398
		c3.184-1.547,4.775-4.079,4.775-7.597v-4.607c-0.699,0.446-1.599,0.818-2.7,1.117c-1.101,0.299-2.182,0.511-3.241,0.638
		l-3.463,0.444c-2.075,0.276-3.637,0.711-4.682,1.303c-1.773,0.996-2.658,2.584-2.658,4.765
		C576.469,108.804,577.073,110.107,578.283,111.06z"/>
</g>
<g>
	<path fill="#010101" d="M824.813,0v5.571h-15.758v41.194h-6.398V5.571h-15.758V0H824.813z"/>
	<path fill="#010101" d="M827.646,12.67h5.443v5.89c0.445-1.146,1.539-2.542,3.279-4.187c1.74-1.645,3.746-2.467,6.017-2.467
		c0.106,0,0.286,0.011,0.541,0.032s0.689,0.063,1.306,0.127v6.049c-0.34-0.064-0.652-0.106-0.939-0.127
		c-0.287-0.021-0.6-0.032-0.939-0.032c-2.887,0-5.104,0.929-6.652,2.786c-1.55,1.857-2.324,3.995-2.324,6.415v19.61h-5.73V12.67z"/>
	<path fill="#010101" d="M867.472,26.131c1.315-0.169,2.196-0.72,2.642-1.652c0.255-0.511,0.383-1.246,0.383-2.205
		c0-1.959-0.694-3.382-2.082-4.266c-1.387-0.884-3.373-1.326-5.957-1.326c-2.986,0-5.104,0.811-6.354,2.431
		c-0.699,0.896-1.154,2.229-1.366,4h-5.349c0.106-4.214,1.469-7.146,4.086-8.795c2.618-1.649,5.654-2.474,9.109-2.474
		c4.007,0,7.261,0.764,9.762,2.292c2.48,1.528,3.721,3.905,3.721,7.131v19.643c0,0.594,0.122,1.072,0.366,1.432
		c0.243,0.36,0.759,0.54,1.544,0.54c0.255,0,0.541-0.016,0.859-0.048s0.658-0.079,1.02-0.143v4.233
		c-0.893,0.255-1.571,0.414-2.038,0.478c-0.468,0.063-1.104,0.096-1.91,0.096c-1.974,0-3.406-0.701-4.298-2.101
		c-0.467-0.743-0.795-1.793-0.986-3.151c-1.168,1.528-2.844,2.854-5.03,3.979c-2.187,1.124-4.595,1.687-7.226,1.687
		c-3.163,0-5.746-0.959-7.752-2.877s-3.009-4.318-3.009-7.202c0-3.158,0.987-5.606,2.96-7.344c1.975-1.738,4.563-2.809,7.768-3.212
		L867.472,26.131z M855.406,41.611c1.209,0.953,2.643,1.429,4.297,1.429c2.017,0,3.969-0.466,5.857-1.398
		c3.184-1.547,4.775-4.079,4.775-7.596v-4.608c-0.699,0.447-1.599,0.819-2.7,1.118c-1.101,0.298-2.182,0.511-3.241,0.638
		l-3.463,0.445c-2.075,0.276-3.637,0.71-4.682,1.303c-1.773,0.996-2.658,2.583-2.658,4.764
		C853.592,39.355,854.196,40.658,855.406,41.611z"/>
	<path fill="#010101" d="M885.457,12.67h5.444v4.839c1.612-1.995,3.321-3.427,5.125-4.297s3.81-1.306,6.017-1.306
		c4.839,0,8.107,1.688,9.805,5.062c0.934,1.846,1.401,4.488,1.401,7.927v21.87h-5.825V25.276c0-2.08-0.309-3.756-0.924-5.03
		c-1.019-2.122-2.865-3.184-5.539-3.184c-1.358,0-2.473,0.139-3.343,0.414c-1.571,0.467-2.95,1.401-4.138,2.801
		c-0.955,1.125-1.576,2.287-1.863,3.486c-0.286,1.199-0.43,2.913-0.43,5.142v17.859h-5.73V12.67z"/>
	<path fill="#010101" d="M925.123,36.068c0.173,1.91,0.66,3.375,1.462,4.393c1.473,1.846,4.029,2.77,7.668,2.77
		c2.166,0,4.072-0.461,5.719-1.385s2.47-2.35,2.47-4.282c0-1.464-0.658-2.579-1.975-3.343c-0.841-0.466-2.502-1.007-4.981-1.624
		l-4.627-1.146c-2.954-0.721-5.133-1.528-6.535-2.419c-2.502-1.549-3.753-3.692-3.753-6.43c0-3.226,1.178-5.836,3.533-7.832
		c2.354-1.995,5.521-2.992,9.501-2.992c5.205,0,8.958,1.507,11.259,4.521c1.441,1.91,2.141,3.969,2.099,6.176h-5.412
		c-0.109-1.288-0.576-2.459-1.401-3.514c-1.347-1.499-3.683-2.248-7.007-2.248c-2.216,0-3.894,0.413-5.034,1.237
		s-1.711,1.914-1.711,3.267c0,1.48,0.749,2.665,2.248,3.553c0.864,0.529,2.141,0.995,3.827,1.398l3.86,0.923
		c4.194,0.998,7.005,1.963,8.433,2.897c2.229,1.464,3.343,3.768,3.343,6.908c0,3.035-1.166,5.656-3.497,7.863
		s-5.882,3.311-10.652,3.311c-5.135,0-8.771-1.151-10.909-3.454c-2.139-2.302-3.283-5.151-3.434-8.547H925.123z"/>
	<path fill="#010101" d="M953.838,12.829h5.603v4.521c1.149-1.549,2.405-2.748,3.767-3.597c1.937-1.273,4.213-1.91,6.83-1.91
		c3.873,0,7.16,1.48,9.862,4.441s4.054,7.189,4.054,12.686c0,7.428-1.95,12.734-5.849,15.917c-2.472,2.016-5.348,3.024-8.629,3.024
		c-2.578,0-4.741-0.563-6.487-1.687c-1.023-0.637-2.163-1.729-3.42-3.279v17.414h-5.73V12.829z M975.396,39.554
		c1.778-2.239,2.667-5.587,2.667-10.044c0-2.716-0.394-5.051-1.182-7.003c-1.49-3.756-4.217-5.635-8.178-5.635
		c-3.981,0-6.708,1.985-8.177,5.953c-0.788,2.123-1.182,4.818-1.182,8.086c0,2.632,0.394,4.871,1.182,6.717
		c1.49,3.523,4.216,5.284,8.177,5.284C971.388,42.913,973.618,41.793,975.396,39.554z"/>
	<path fill="#010101" d="M1015.277,16.073c3.014,2.926,4.521,7.23,4.521,12.913c0,5.492-1.328,10.03-3.983,13.613
		c-2.654,3.583-6.774,5.375-12.359,5.375c-4.657,0-8.355-1.584-11.096-4.754c-2.739-3.17-4.109-7.427-4.109-12.771
		c0-5.726,1.443-10.284,4.331-13.677c2.887-3.392,6.765-5.089,11.633-5.089C1008.576,11.683,1012.264,13.146,1015.277,16.073z
		 M1011.72,38.732c1.396-2.872,2.094-6.068,2.094-9.586c0-3.18-0.504-5.766-1.512-7.758c-1.595-3.137-4.344-4.706-8.247-4.706
		c-3.463,0-5.98,1.335-7.555,4.007c-1.573,2.671-2.36,5.893-2.36,9.666c0,3.625,0.787,6.646,2.36,9.062
		c1.574,2.417,4.071,3.625,7.492,3.625C1007.748,43.04,1010.324,41.604,1011.72,38.732z"/>
	<path fill="#010101" d="M1026.993,12.67h5.443v5.89c0.446-1.146,1.539-2.542,3.279-4.187c1.74-1.645,3.745-2.467,6.017-2.467
		c0.106,0,0.286,0.011,0.541,0.032s0.689,0.063,1.306,0.127v6.049c-0.34-0.064-0.653-0.106-0.939-0.127
		c-0.286-0.021-0.6-0.032-0.939-0.032c-2.886,0-5.104,0.929-6.653,2.786c-1.549,1.857-2.323,3.995-2.323,6.415v19.61h-5.73V12.67z"
		/>
	<path fill="#010101" d="M1049.691,3.151h5.793v9.519h5.444v4.68h-5.444v22.252c0,1.188,0.403,1.984,1.21,2.387
		c0.446,0.234,1.188,0.351,2.229,0.351c0.275,0,0.573-0.007,0.892-0.021c0.318-0.014,0.689-0.05,1.114-0.106v4.552
		c-0.658,0.191-1.343,0.329-2.054,0.414c-0.711,0.084-1.48,0.127-2.308,0.127c-2.674,0-4.489-0.684-5.444-2.053
		c-0.954-1.369-1.432-3.146-1.432-5.332V17.35h-4.616v-4.68h4.616V3.151z"/>
	<path fill="#010101" d="M1070.065,36.068c0.173,1.91,0.66,3.375,1.462,4.393c1.473,1.846,4.029,2.77,7.668,2.77
		c2.166,0,4.072-0.461,5.719-1.385s2.47-2.35,2.47-4.282c0-1.464-0.658-2.579-1.975-3.343c-0.841-0.466-2.502-1.007-4.981-1.624
		l-4.627-1.146c-2.954-0.721-5.133-1.528-6.535-2.419c-2.502-1.549-3.753-3.692-3.753-6.43c0-3.226,1.178-5.836,3.533-7.832
		c2.354-1.995,5.521-2.992,9.501-2.992c5.205,0,8.958,1.507,11.259,4.521c1.441,1.91,2.141,3.969,2.099,6.176h-5.412
		c-0.109-1.288-0.576-2.459-1.401-3.514c-1.347-1.499-3.683-2.248-7.007-2.248c-2.216,0-3.894,0.413-5.034,1.237
		s-1.711,1.914-1.711,3.267c0,1.48,0.749,2.665,2.248,3.553c0.864,0.529,2.141,0.995,3.827,1.398l3.86,0.923
		c4.194,0.998,7.005,1.963,8.433,2.897c2.229,1.464,3.343,3.768,3.343,6.908c0,3.035-1.166,5.656-3.497,7.863
		s-5.882,3.311-10.652,3.311c-5.135,0-8.771-1.151-10.909-3.454c-2.139-2.302-3.283-5.151-3.434-8.547H1070.065z"/>
	<path fill="#010101" d="M823.889,72.855c3.23,3.12,5.024,6.664,5.381,10.633h-6.176c-0.688-3.014-2.059-5.401-4.111-7.163
		c-2.053-1.761-4.935-2.642-8.645-2.642c-4.522,0-8.176,1.62-10.957,4.859c-2.783,3.239-4.174,8.204-4.174,14.895
		c0,5.48,1.256,9.925,3.769,13.334c2.512,3.41,6.259,5.113,11.241,5.113c4.588,0,8.08-1.793,10.477-5.381
		c1.271-1.889,2.221-4.371,2.846-7.448h6.176c-0.545,4.925-2.35,9.052-5.412,12.384c-3.671,4.012-8.622,6.016-14.854,6.016
		c-5.37,0-9.881-1.645-13.53-4.936c-4.804-4.354-7.206-11.076-7.206-20.166c0-6.901,1.804-12.561,5.412-16.978
		c3.9-4.799,9.281-7.199,16.141-7.199C816.117,68.176,820.659,69.736,823.889,72.855z"/>
	<path fill="#010101" d="M855.406,95.58c1.315-0.168,2.197-0.72,2.643-1.652c0.254-0.511,0.381-1.246,0.381-2.205
		c0-1.959-0.693-3.381-2.081-4.266c-1.388-0.884-3.372-1.326-5.956-1.326c-2.986,0-5.105,0.811-6.354,2.431
		c-0.699,0.897-1.154,2.229-1.366,4h-5.348c0.105-4.214,1.467-7.146,4.086-8.795c2.617-1.649,5.654-2.474,9.109-2.474
		c4.006,0,7.26,0.764,9.762,2.292c2.48,1.528,3.72,3.905,3.72,7.131v19.643c0,0.596,0.122,1.072,0.366,1.434
		c0.244,0.359,0.758,0.539,1.544,0.539c0.255,0,0.541-0.016,0.859-0.047c0.318-0.033,0.657-0.08,1.019-0.143v4.232
		c-0.891,0.256-1.57,0.414-2.037,0.479c-0.467,0.063-1.104,0.096-1.91,0.096c-1.974,0-3.406-0.701-4.297-2.102
		c-0.468-0.742-0.797-1.793-0.988-3.15c-1.166,1.527-2.844,2.854-5.029,3.979c-2.186,1.123-4.595,1.688-7.227,1.688
		c-3.162,0-5.746-0.961-7.752-2.879c-2.005-1.918-3.008-4.318-3.008-7.201c0-3.158,0.986-5.606,2.961-7.344
		c1.974-1.738,4.563-2.81,7.768-3.213L855.406,95.58z M843.34,111.06c1.211,0.953,2.643,1.43,4.299,1.43
		c2.016,0,3.968-0.467,5.857-1.398c3.184-1.547,4.775-4.078,4.775-7.597v-4.608c-0.7,0.447-1.6,0.819-2.701,1.117
		c-1.102,0.299-2.182,0.512-3.24,0.639l-3.463,0.444c-2.076,0.276-3.637,0.71-4.684,1.303c-1.771,0.995-2.658,2.583-2.658,4.765
		C841.525,108.804,842.131,110.107,843.34,111.06z"/>
	<path fill="#010101" d="M873.393,82.119h5.443v4.839c1.612-1.995,3.321-3.427,5.125-4.297s3.81-1.306,6.018-1.306
		c4.838,0,8.105,1.688,9.805,5.062c0.934,1.846,1.4,4.489,1.4,7.926v21.871h-5.826V94.726c0-2.08-0.308-3.757-0.923-5.03
		c-1.019-2.122-2.865-3.184-5.539-3.184c-1.358,0-2.473,0.139-3.343,0.414c-1.57,0.467-2.95,1.401-4.139,2.802
		c-0.955,1.125-1.576,2.287-1.861,3.485c-0.287,1.199-0.431,2.913-0.431,5.142v17.859h-5.729V82.119z"/>
	<path fill="#010101" d="M927.926,95.58c1.314-0.168,2.195-0.72,2.643-1.652c0.254-0.511,0.381-1.246,0.381-2.205
		c0-1.959-0.693-3.381-2.082-4.266c-1.387-0.884-3.373-1.326-5.955-1.326c-2.987,0-5.105,0.811-6.355,2.431
		c-0.699,0.897-1.154,2.229-1.365,4h-5.349c0.106-4.214,1.468-7.146,4.086-8.795s5.654-2.474,9.11-2.474
		c4.006,0,7.26,0.764,9.762,2.292c2.479,1.528,3.719,3.905,3.719,7.131v19.643c0,0.596,0.123,1.072,0.367,1.434
		c0.244,0.359,0.758,0.539,1.543,0.539c0.256,0,0.541-0.016,0.859-0.047c0.318-0.033,0.658-0.08,1.02-0.143v4.232
		c-0.891,0.256-1.57,0.414-2.037,0.479c-0.467,0.063-1.104,0.096-1.91,0.096c-1.975,0-3.406-0.701-4.299-2.102
		c-0.467-0.742-0.795-1.793-0.986-3.15c-1.168,1.527-2.844,2.854-5.029,3.979c-2.186,1.123-4.596,1.688-7.227,1.688
		c-3.162,0-5.746-0.961-7.752-2.879s-3.008-4.318-3.008-7.201c0-3.158,0.986-5.606,2.96-7.344c1.974-1.738,4.563-2.81,7.768-3.213
		L927.926,95.58z M915.859,111.06c1.21,0.953,2.643,1.43,4.298,1.43c2.017,0,3.968-0.467,5.858-1.398
		c3.182-1.547,4.773-4.078,4.773-7.597v-4.608c-0.699,0.447-1.598,0.819-2.699,1.117c-1.102,0.299-2.182,0.512-3.24,0.639
		l-3.464,0.444c-2.075,0.276-3.637,0.71-4.683,1.303c-1.772,0.995-2.658,2.583-2.658,4.765
		C914.045,108.804,914.65,110.107,915.859,111.06z"/>
	<path fill="#010101" d="M964.644,83.17c1.015,0.637,2.166,1.75,3.456,3.342V69.29h5.508v46.924h-5.157v-4.744
		c-1.332,2.102-2.907,3.619-4.726,4.553s-3.9,1.4-6.248,1.4c-3.784,0-7.061-1.596-9.83-4.791c-2.77-3.193-4.154-7.443-4.154-12.75
		c0-4.966,1.263-9.268,3.789-12.908c2.526-3.64,6.136-5.46,10.829-5.46C960.711,81.514,962.889,82.066,964.644,83.17z
		 M951.853,108.732c1.541,2.463,4.012,3.693,7.412,3.693c2.639,0,4.808-1.141,6.508-3.422s2.55-5.555,2.55-9.82
		c0-4.309-0.876-7.498-2.629-9.566c-1.753-2.07-3.917-3.104-6.493-3.104c-2.872,0-5.199,1.104-6.983,3.312
		c-1.785,2.207-2.677,5.454-2.677,9.74C949.54,103.214,950.311,106.271,951.853,108.732z"/>
	<path fill="#010101" d="M1000.444,95.58c1.315-0.168,2.196-0.72,2.643-1.652c0.254-0.511,0.381-1.246,0.381-2.205
		c0-1.959-0.693-3.381-2.081-4.266c-1.387-0.884-3.373-1.326-5.956-1.326c-2.986,0-5.105,0.811-6.354,2.431
		c-0.699,0.897-1.154,2.229-1.366,4h-5.348c0.105-4.214,1.468-7.146,4.085-8.795c2.618-1.649,5.655-2.474,9.11-2.474
		c4.006,0,7.26,0.764,9.762,2.292c2.479,1.528,3.72,3.905,3.72,7.131v19.643c0,0.596,0.122,1.072,0.366,1.434
		c0.244,0.359,0.759,0.539,1.544,0.539c0.255,0,0.541-0.016,0.859-0.047c0.318-0.033,0.657-0.08,1.019-0.143v4.232
		c-0.891,0.256-1.57,0.414-2.037,0.479c-0.467,0.063-1.104,0.096-1.91,0.096c-1.974,0-3.406-0.701-4.298-2.102
		c-0.467-0.742-0.796-1.793-0.986-3.15c-1.168,1.527-2.845,2.854-5.03,3.979c-2.186,1.123-4.595,1.688-7.227,1.688
		c-3.162,0-5.746-0.961-7.751-2.879c-2.006-1.918-3.009-4.318-3.009-7.201c0-3.158,0.987-5.606,2.961-7.344
		c1.974-1.738,4.563-2.81,7.768-3.213L1000.444,95.58z M988.379,111.06c1.209,0.953,2.642,1.43,4.297,1.43
		c2.017,0,3.969-0.467,5.858-1.398c3.183-1.547,4.774-4.078,4.774-7.597v-4.608c-0.699,0.447-1.599,0.819-2.7,1.117
		c-1.102,0.299-2.182,0.512-3.24,0.639l-3.463,0.444c-2.076,0.276-3.637,0.71-4.683,1.303c-1.772,0.995-2.658,2.583-2.658,4.765
		C986.564,108.804,987.169,110.107,988.379,111.06z"/>
</g>
</svg>
